<svg width="460" height="502" viewBox="0 0 460 502" fill="none" xmlns="http://www.w3.org/2000/svg">
<g clip-path="url(#clip0_60_654)">
<path d="M39.5107 320.649L46.1782 322.569L49.8274 315.931C51.4463 316.095 53.0651 316.123 54.6565 316.013L58.0589 322.761L64.7812 321.088L64.6166 313.517C66.0708 312.858 67.4976 312.063 68.842 311.185L75.1802 315.327L80.174 310.527L76.2503 304.08C77.1832 302.791 78.0064 301.392 78.7197 299.938L86.2652 300.377L88.1859 293.711L81.5459 290.063C81.7105 288.444 81.7379 286.826 81.6282 285.235L88.378 281.833L86.7042 275.112L79.1313 275.277C78.4728 273.823 77.6771 272.397 76.7991 271.053L80.9422 264.716L76.1406 259.723L69.6926 263.646C68.403 262.713 67.0037 261.89 65.5495 261.177L65.9885 253.633L59.321 251.713L55.6443 258.407C54.0255 258.242 52.4066 258.215 50.8152 258.324L47.4129 251.576L40.6905 253.249L40.8552 260.821C39.4009 261.479 37.9742 262.274 36.6297 263.152L30.2915 259.01L25.2977 263.811L29.2214 270.257C28.2885 271.546 27.4654 272.945 26.752 274.399L19.2065 273.96L17.2858 280.626L23.9258 284.247C23.7612 285.866 23.7338 287.484 23.8435 289.075L17.0938 292.477L18.7675 299.197L26.3404 299.033C26.9989 300.487 27.7946 301.913 28.6726 303.257L24.5295 309.594L29.3311 314.587L35.7791 310.664C37.0687 311.597 38.468 312.42 39.9223 313.133L39.5107 320.649ZM35.587 282.272C38.3034 272.808 48.1811 267.322 57.6473 270.038C67.1134 272.753 72.6011 282.629 69.8847 292.093C67.1683 301.557 57.2906 307.043 47.8244 304.327C38.3309 301.611 32.8707 291.736 35.587 282.272Z" fill="white"/>
<path d="M58.0314 323.392C57.8119 323.392 57.5924 323.255 57.4826 323.063L54.2724 316.671C52.9279 316.754 51.5286 316.726 50.1567 316.589L46.7269 322.871C46.5897 323.118 46.2879 323.255 46.0135 323.173L39.346 321.253C39.0717 321.17 38.8796 320.923 38.907 320.622L39.3186 313.462C38.0839 312.831 36.904 312.118 35.7791 311.35L29.6604 315.053C29.4134 315.19 29.1116 315.163 28.9196 314.943L24.1179 309.951C23.9258 309.759 23.8984 309.429 24.0356 309.183L27.9592 303.203C27.2184 302.05 26.5324 300.843 25.9562 299.609L18.7949 299.774C18.5205 299.774 18.2736 299.582 18.2187 299.307L16.545 292.586C16.4901 292.312 16.5998 292.038 16.8742 291.901L23.2673 288.691C23.185 287.347 23.2124 285.948 23.3496 284.576L17.0663 281.147C16.8194 281.01 16.7096 280.709 16.7645 280.434L18.6851 273.768C18.7675 273.494 18.987 273.302 19.3162 273.329L26.4776 273.741C27.1086 272.506 27.822 271.327 28.5903 270.202L24.8862 264.085C24.749 263.838 24.7764 263.536 24.9959 263.344L29.9896 258.544C30.1817 258.352 30.511 258.324 30.7579 258.461L36.7394 262.384C37.8918 261.643 39.0991 260.958 40.3338 260.382L40.1692 253.222C40.1692 252.948 40.3613 252.701 40.6356 252.618L47.358 250.945C47.6324 250.863 47.9067 251 48.0439 251.274L51.2542 257.666C52.5987 257.584 53.998 257.611 55.3699 257.748L58.8271 251.466C58.9643 251.219 59.2661 251.11 59.5405 251.165L66.208 253.085C66.4823 253.167 66.6744 253.414 66.647 253.716L66.1256 260.875C67.3604 261.506 68.5402 262.22 69.6652 262.988L75.7839 259.284C76.0308 259.147 76.3326 259.175 76.5247 259.394L81.3264 264.387C81.5184 264.579 81.5459 264.908 81.4087 265.155L77.485 271.135C78.2259 272.287 78.9118 273.494 79.488 274.728L86.6494 274.564C86.9237 274.564 87.1707 274.756 87.2256 275.03L88.8993 281.751C88.9542 282.025 88.8444 282.3 88.57 282.437L82.1769 285.646C82.2593 286.99 82.2318 288.389 82.0946 289.761L88.378 293.217C88.6249 293.355 88.7347 293.656 88.6798 293.931L86.7591 300.597C86.6768 300.871 86.4298 301.063 86.128 301.035L78.9667 300.624C78.3356 301.858 77.6222 303.038 76.854 304.163L80.5581 310.28C80.6953 310.527 80.6678 310.829 80.4483 311.021L75.4546 315.821C75.2625 316.013 74.9333 316.041 74.6863 315.903L68.7048 311.981C67.5524 312.721 66.3451 313.407 65.1104 313.983L65.2751 321.143C65.2751 321.417 65.083 321.664 64.8086 321.746L58.0863 323.42C58.1412 323.392 58.0863 323.392 58.0314 323.392ZM54.6291 315.41C54.8486 315.41 55.0681 315.547 55.1778 315.739L58.3607 322.048L64.1501 320.594L63.9855 313.517C63.9855 313.27 64.1227 313.05 64.3422 312.941C65.7689 312.282 67.1683 311.514 68.4579 310.664C68.65 310.527 68.9243 310.527 69.1164 310.664L75.043 314.559L79.3234 310.417L75.6467 304.382C75.5095 304.163 75.5369 303.916 75.6741 303.724C76.5796 302.462 77.4027 301.09 78.0887 299.664C78.1984 299.444 78.4179 299.307 78.6649 299.335L85.7439 299.746L87.3902 294.013L81.1892 290.611C80.9697 290.502 80.8599 290.255 80.8873 290.008C81.052 288.417 81.0794 286.826 80.9697 285.29C80.9422 285.043 81.0794 284.823 81.2989 284.714L87.6097 281.531L86.1555 275.743L79.0764 275.908C78.8295 275.908 78.61 275.771 78.5002 275.551C77.8692 274.125 77.0734 272.726 76.2229 271.437C76.0857 271.245 76.0857 270.97 76.2229 270.778L80.1191 264.853L76.0034 260.574L69.967 264.249C69.7475 264.387 69.5005 264.359 69.3085 264.222C68.0463 263.317 66.6744 262.494 65.2476 261.808C65.0281 261.698 64.8909 261.479 64.9184 261.232L65.3299 254.155L59.5954 252.509L56.193 258.708C56.0833 258.928 55.8638 259.037 55.5894 259.01C53.998 258.845 52.4066 258.818 50.8701 258.928C50.6231 258.955 50.4036 258.818 50.2939 258.599L47.111 252.289L41.3216 253.743L41.4862 260.821C41.4862 261.067 41.349 261.287 41.1295 261.397C39.7027 262.028 38.3034 262.823 37.0138 263.673C36.8217 263.811 36.5474 263.811 36.3553 263.673L30.4012 259.778L26.1209 263.893L29.7976 269.928C29.9348 270.147 29.9073 270.394 29.7701 270.586C28.8647 271.848 28.0415 273.22 27.3556 274.646C27.2458 274.866 27.0263 275.003 26.7794 274.975L19.7004 274.564L18.0541 280.297L24.2551 283.699C24.4746 283.808 24.5843 284.055 24.5569 284.302C24.3923 285.893 24.3648 287.484 24.4746 289.02C24.502 289.267 24.3648 289.487 24.1453 289.596L17.8346 292.778L19.2888 298.567L26.3678 298.402C26.6148 298.402 26.8343 298.539 26.944 298.759C27.5751 300.185 28.3434 301.584 29.2214 302.873C29.3586 303.065 29.3586 303.34 29.2214 303.532L25.3252 309.457L29.4683 313.736L35.5047 310.06C35.7242 309.923 35.9712 309.951 36.1632 310.088C37.4254 310.993 38.7698 311.816 40.2241 312.502C40.4436 312.612 40.5808 312.831 40.5533 313.078L40.1418 320.155L45.8763 321.801L49.2786 315.602C49.3884 315.382 49.6353 315.272 49.8823 315.3C51.4737 315.464 53.0651 315.492 54.6016 315.382C54.6016 315.41 54.6291 315.41 54.6291 315.41ZM52.7633 305.616C51.0621 305.616 49.3335 305.37 47.6598 304.903C37.8918 302.105 32.2121 291.873 35.0108 282.108C36.3553 277.362 39.4832 273.439 43.791 271.053C48.0988 268.666 53.0925 268.09 57.8119 269.462C67.5799 272.26 73.2596 282.492 70.4609 292.257C69.1164 297.003 65.9885 300.926 61.6807 303.312C58.882 304.848 55.8364 305.616 52.7633 305.616ZM36.1632 282.437C33.5566 291.571 38.8522 301.118 47.9616 303.751C52.3792 305.013 57.0436 304.492 61.0496 302.27C65.083 300.048 67.9914 296.372 69.2536 291.956C71.8602 282.821 66.5647 273.275 57.4552 270.641C53.0377 269.379 48.3732 269.9 44.3672 272.122C40.3613 274.344 37.4254 277.993 36.1632 282.437Z" fill="#FF3811"/>
<path d="M38.9346 452.431L50.3214 455.695L56.5498 444.339C59.3211 444.613 62.0923 444.668 64.8087 444.503L70.6256 456.052L82.1222 453.199L81.8203 440.251C84.3446 439.127 86.7318 437.782 89.0366 436.246L99.8746 443.351L108.408 435.122L101.686 424.067C103.277 421.845 104.704 419.485 105.938 416.989L118.862 417.73L122.127 406.346L110.768 400.119C111.042 397.348 111.097 394.577 110.932 391.862L122.484 386.046L119.63 374.552L106.679 374.854C105.554 372.33 104.21 369.944 102.673 367.64L109.78 356.804L101.548 348.273L90.4908 354.994C88.2683 353.402 85.9086 351.976 83.4117 350.742L84.1526 337.821L72.7658 334.557L66.5373 345.914C63.7661 345.639 60.9948 345.584 58.2784 345.749L52.4616 334.2L40.965 337.053L41.2668 350.001C38.7425 351.126 36.3554 352.47 34.0506 354.006L23.2125 346.901L14.6793 355.131L21.4016 366.186C19.8102 368.408 18.3834 370.767 17.1487 373.263L4.22535 372.522L0.960211 383.907L12.3196 390.134C12.0452 392.904 11.9903 395.675 12.155 398.39L0.603516 404.206L3.45708 415.7L16.4079 415.398C17.5328 417.922 18.8773 420.308 20.4138 422.613L13.3074 433.448L21.5388 441.979L32.5964 435.259C34.8188 436.85 37.1785 438.276 39.6754 439.511L38.9346 452.431ZM32.2122 386.705C36.8493 370.52 53.7511 361.138 69.9671 365.802C86.1556 370.438 95.5394 387.336 90.8749 403.548C86.2379 419.732 69.336 429.114 53.1201 424.451C36.9316 419.787 27.5752 402.889 32.2122 386.705Z" fill="white"/>
<path d="M70.6257 456.655C70.4062 456.655 70.1867 456.518 70.0769 456.326L64.4521 445.134C61.9827 445.271 59.4309 445.216 56.9066 444.997L50.8702 455.997C50.733 456.244 50.4312 456.381 50.1568 456.299L38.77 453.034C38.4956 452.952 38.3036 452.705 38.331 452.403L39.0444 439.895C36.767 438.743 34.5994 437.453 32.569 436.027L21.8681 442.528C21.6212 442.665 21.3194 442.638 21.1273 442.418L12.8959 433.887C12.7038 433.695 12.6764 433.366 12.8136 433.119L19.7005 422.64C18.3286 420.528 17.0939 418.333 16.0513 416.029L3.51203 416.303C3.21021 416.303 2.99071 416.111 2.90839 415.837L0.0273909 404.343C-0.0274853 404.069 0.0822672 403.795 0.356648 403.657L11.524 398.034C11.3868 395.565 11.4416 393.014 11.6612 390.49L0.658468 384.455C0.411525 384.318 0.301772 384.016 0.356648 383.742L3.62178 372.358C3.7041 372.084 3.9236 371.891 4.25286 371.919L16.7921 372.632C17.9445 370.355 19.2341 368.188 20.6609 366.158L14.158 355.46C14.0208 355.213 14.0483 354.911 14.2678 354.719L22.801 346.49C22.9931 346.298 23.3224 346.27 23.5693 346.407L34.0507 353.293C36.1634 351.921 38.3584 350.687 40.6632 349.644L40.3889 337.108C40.3889 336.834 40.5809 336.587 40.8553 336.505L52.3519 333.652C52.6263 333.569 52.9006 333.707 53.0378 333.981L58.6626 345.173C61.1321 345.036 63.6838 345.091 66.2081 345.31L72.2445 334.31C72.3817 334.063 72.6835 333.953 72.9579 334.008L84.3447 337.273C84.6191 337.355 84.8112 337.602 84.7837 337.904L84.0703 350.412C86.3477 351.565 88.5153 352.854 90.5457 354.28L101.247 347.779C101.494 347.642 101.795 347.669 101.987 347.889L110.219 356.42C110.411 356.612 110.438 356.941 110.301 357.188L103.414 367.667C104.786 369.779 106.021 371.974 107.063 374.278L119.603 374.004C119.877 374.004 120.124 374.196 120.179 374.47L123.032 385.964C123.087 386.238 122.978 386.513 122.703 386.65L111.508 392.273C111.646 394.742 111.591 397.293 111.371 399.817L122.374 405.852C122.621 405.989 122.731 406.291 122.676 406.565L119.411 417.949C119.328 418.224 119.081 418.416 118.78 418.388L106.268 417.675C105.115 419.952 103.826 422.119 102.399 424.149L108.902 434.847C109.039 435.094 109.012 435.396 108.792 435.588L100.259 443.817C100.067 444.009 99.7375 444.037 99.4906 443.9L89.0092 437.014C86.8965 438.386 84.7014 439.62 82.3966 440.663L82.671 453.199C82.671 453.473 82.4789 453.72 82.2046 453.803L70.708 456.655C70.7354 456.655 70.6805 456.655 70.6257 456.655ZM64.8088 443.872C65.0283 443.872 65.2478 444.009 65.3575 444.201L70.9549 455.311L81.5186 452.678L81.2442 440.224C81.2442 439.977 81.3814 439.757 81.6009 439.648C84.0703 438.523 86.4849 437.206 88.7348 435.698C88.9269 435.56 89.2013 435.56 89.3933 435.698L99.8198 442.528L107.64 434.957L101.164 424.313C101.027 424.094 101.055 423.847 101.192 423.655C102.756 421.488 104.155 419.129 105.39 416.66C105.5 416.441 105.719 416.303 105.966 416.331L118.395 417.044L121.386 406.593L110.466 400.612C110.246 400.503 110.137 400.256 110.164 400.009C110.438 397.266 110.493 394.523 110.329 391.862C110.301 391.615 110.438 391.395 110.658 391.286L121.77 385.69L119.136 375.128L106.679 375.403C106.432 375.403 106.213 375.266 106.103 375.046C104.978 372.577 103.661 370.163 102.152 367.914C102.015 367.722 102.015 367.448 102.152 367.256L108.984 356.831L101.411 349.013L90.8201 355.515C90.6006 355.652 90.3537 355.624 90.1616 355.487C87.994 353.924 85.6343 352.525 83.1649 351.29C82.9454 351.181 82.8082 350.961 82.8356 350.714L83.549 338.288L73.0951 335.298L67.1136 346.215C67.0038 346.435 66.7569 346.545 66.5099 346.517C63.7661 346.243 61.0223 346.188 58.3608 346.353C58.1139 346.38 57.8944 346.243 57.7846 346.023L52.1872 334.914L41.6236 337.547L41.898 350.001C41.898 350.248 41.7608 350.467 41.5413 350.577C39.0718 351.702 36.6847 353.018 34.4073 354.527C34.2153 354.664 33.9409 354.664 33.7488 354.527L23.3224 347.697L15.5025 355.268L21.9779 365.911C22.1151 366.131 22.0876 366.378 21.9504 366.57C20.3865 368.737 18.9871 371.096 17.7524 373.565C17.6427 373.784 17.4232 373.921 17.1762 373.894L4.74675 373.181L1.75599 383.632L12.6764 389.612C12.8959 389.722 13.0056 389.969 12.9782 390.216C12.7038 392.959 12.6489 395.702 12.8136 398.363C12.841 398.61 12.7038 398.829 12.4843 398.939L1.37186 404.535L4.00592 415.096L16.4628 414.822C16.7098 414.822 16.9293 414.959 17.039 415.179C18.164 417.648 19.481 420.034 20.9901 422.311C21.1273 422.503 21.1273 422.777 20.9901 422.969L14.158 433.393L21.7309 441.211L32.3769 434.737C32.5964 434.6 32.8434 434.628 33.0354 434.765C35.2031 436.329 37.5627 437.728 40.0322 438.962C40.2517 439.072 40.3889 439.291 40.3614 439.538L39.648 451.965L50.102 454.955L56.0835 444.037C56.1932 443.817 56.4127 443.708 56.6871 443.735C59.4309 444.009 62.1747 444.064 64.8362 443.9C64.7813 443.9 64.8088 443.872 64.8088 443.872ZM61.5436 426.234C58.7175 426.234 55.8365 425.85 52.983 425.027C44.9985 422.722 38.3584 417.456 34.3525 410.186C30.3191 402.917 29.3587 394.523 31.6635 386.513C33.9683 378.53 39.2365 371.891 46.5076 367.886C53.7787 363.854 62.1747 362.894 70.1867 365.198C78.1711 367.502 84.8112 372.769 88.8171 380.039C92.8505 387.308 93.8109 395.702 91.5061 403.712C87.555 417.346 75.0706 426.234 61.5436 426.234ZM32.2123 386.705L32.7885 386.869C30.5935 394.55 31.4989 402.615 35.3677 409.61C39.2365 416.605 45.6021 421.653 53.2848 423.847C56.0286 424.643 58.7998 424.999 61.5162 424.999C74.5219 424.999 86.5123 416.441 90.2714 403.328C92.4664 395.647 91.561 387.582 87.6922 380.587C83.8234 373.592 77.4578 368.545 69.7751 366.35C62.0924 364.156 54.0256 365.061 47.0289 368.929C40.0322 372.797 34.9836 379.161 32.7885 386.842L32.2123 386.705Z" fill="#FF3811"/>
<path d="M277.097 296.262C281.981 289.761 249.714 278.13 250.153 255.279C250.537 234.404 277.783 229.055 276.988 209.935C276.137 189.471 244.528 185.466 244.501 164.618C244.501 148.543 263.241 146.129 264.778 128.929C266.616 108.273 240.083 105.53 231.44 78.2626C223.374 52.806 241.894 40.5441 228.395 20.3818C226.639 17.7758 215.663 2.08483 200.134 1.86537C174.836 1.48133 142.157 42.0802 146.986 77.2202C151.019 106.792 178.622 110.358 180.241 141.794C181.613 168.431 162.132 172.875 168.47 193.531C175.961 217.972 205.731 219.892 211.85 247.461C215.06 261.89 207.898 265.923 213.77 276.127C226.172 297.689 271.692 303.422 277.097 296.262Z" fill="white"/>
<path d="M265.491 299.801C264.311 299.801 263.077 299.774 261.76 299.691C247.108 298.786 222.084 291.846 213.222 276.429C209.956 270.751 210.588 266.856 211.328 262.357C211.959 258.516 212.673 254.155 211.219 247.598C208.063 233.361 198.323 225.955 188.884 218.768C180.323 212.239 171.461 205.518 167.839 193.723C164.519 182.887 168.086 176.496 172.202 169.116C175.961 162.341 180.241 154.66 179.582 141.849C178.759 125.692 171.131 117.188 163.065 108.191C155.794 100.071 148.303 91.7042 146.327 77.33C143.309 55.2749 154.723 33.3295 166.385 20.1349C177.14 7.98264 189.433 1.12471 200.079 1.2893C215.609 1.50876 226.776 17.0077 228.834 20.1074C236.187 31.0801 234.212 39.9406 232.099 49.2948C230.206 57.7163 228.258 66.4121 231.962 78.1255C236.078 91.1555 244.364 98.5347 251.635 105.036C259.482 112.031 266.287 118.093 265.299 129.039C264.531 137.817 259.427 142.782 254.488 147.583C249.604 152.328 245.022 156.827 245.022 164.645C245.022 174.904 252.787 180.885 261.019 187.194C268.921 193.256 277.07 199.538 277.509 209.907C277.921 219.673 271.418 225.763 264.503 232.237C257.808 238.519 250.867 245.02 250.675 255.279C250.428 268.611 261.595 278.075 269.744 284.988C275.588 289.953 279.814 293.519 277.482 296.619C276.027 298.676 271.72 299.801 265.491 299.801ZM199.804 2.46887C189.707 2.46887 177.607 9.32679 167.345 20.903C155.848 33.8782 144.599 55.4669 147.562 77.1105C149.483 91.1007 156.864 99.3302 163.998 107.313C171.845 116.091 179.967 125.143 180.817 141.74C181.503 154.907 177.14 162.752 173.272 169.665C169.293 176.825 165.863 182.997 169.019 193.339C172.531 204.778 180.845 211.087 189.652 217.78C199.256 225.077 209.161 232.621 212.426 247.297C213.935 254.072 213.194 258.571 212.536 262.521C211.795 266.965 211.219 270.504 214.264 275.798C222.88 290.803 247.437 297.552 261.814 298.457C269.36 298.923 275.04 297.936 276.576 295.878C278.222 293.711 274.162 290.282 269.003 285.921C260.662 278.843 249.248 269.16 249.495 255.252C249.687 244.471 256.821 237.805 263.708 231.331C270.403 225.05 276.713 219.152 276.329 209.935C275.918 200.114 268.345 194.299 260.333 188.127C252.239 181.9 243.87 175.453 243.87 164.618C243.87 156.278 248.864 151.396 253.693 146.677C258.467 142.014 263.406 137.213 264.147 128.874C265.052 118.532 258.494 112.662 250.867 105.886C243.458 99.2753 235.062 91.8139 230.837 78.4547C227.023 66.4121 229.108 57.1677 230.947 48.993C233.087 39.5017 234.925 31.2721 227.874 20.7384C225.843 17.7209 215.032 2.68832 200.106 2.46887C199.996 2.46887 199.887 2.46887 199.804 2.46887Z" fill="black"/>
<path d="M266.808 292.586C266.753 292.586 266.698 292.586 266.616 292.559C247.053 286.497 234.733 277.965 229.959 267.185C226.337 259.01 228.395 252.399 230.562 245.404C232.757 238.381 235.007 231.112 231.77 221.429C228.34 211.169 222.166 206.561 216.212 202.117C210.423 197.783 204.962 193.695 202.52 184.945C199.091 172.573 205.511 163.767 211.74 155.263C217.776 147.034 224.005 138.503 221.59 126.542C219.642 116.886 213.359 111.263 206.691 105.31C199.475 98.8638 191.298 91.567 187.484 77.9609C184.631 67.8386 184.933 57.0305 188.362 45.7835C188.472 45.4543 188.801 45.2898 189.131 45.372C189.46 45.4818 189.625 45.811 189.542 46.1401C186.195 57.1402 185.893 67.7289 188.664 77.6317C192.396 90.8812 200.078 97.7666 207.514 104.405C214.346 110.495 220.794 116.256 222.797 126.323C225.294 138.804 218.901 147.555 212.727 156.004C206.389 164.645 200.408 172.82 203.7 184.643C206.033 192.982 211.328 196.96 216.925 201.157C223.044 205.738 229.355 210.456 232.894 221.072C236.269 231.139 233.937 238.601 231.687 245.788C229.574 252.564 227.571 258.955 231.029 266.718C235.666 277.142 247.738 285.454 266.945 291.407C267.274 291.517 267.439 291.846 267.357 292.175C267.302 292.422 267.082 292.586 266.808 292.586Z" fill="black"/>
<path d="M288.704 385.004C290.899 379.984 262.94 372.468 239.425 337.081C225.185 315.657 219.697 294.726 214.731 275.085C202.439 226.476 212.536 216.957 199.475 194.326C183.808 167.169 164.053 177.62 141.745 149.667C114.252 115.186 134.831 87.3974 106.625 56.3447C91.2319 39.3645 63.8487 24.2771 39.7854 32.0128C25.2432 36.7036 10.0151 50.3372 9.63095 65.2052C9.24682 79.5519 22.9384 84.3251 33.6667 101.772C52.8186 132.934 29.99 151.615 42.1726 183.216C58.7177 226.092 110.713 217.451 132.965 268.529C141.91 289.103 134.227 292.23 142.157 311.871C168.937 378.173 284.341 394.934 288.704 385.004Z" fill="white"/>
<path d="M277.482 388.268C277.125 388.268 276.796 388.268 276.439 388.268C260.306 388.021 232.127 382.453 205.539 370.492C183.04 360.37 153.681 342.018 141.581 312.118C137.685 302.489 137.52 296.729 137.328 291.133C137.136 285.043 136.944 279.282 132.389 268.776C120.975 242.524 101.796 232.237 83.2748 222.306C66.0162 213.062 49.6905 204.311 41.6237 183.436C35.9989 168.842 37.7549 156.937 39.4561 145.443C41.4865 131.754 43.4346 118.807 33.1453 102.101C28.9473 95.2703 24.3103 90.4149 20.222 86.1081C13.8289 79.4148 8.7803 74.1205 9.02724 65.1777C9.43881 50.0903 24.8865 36.155 39.6207 31.4367C63.684 23.701 91.4513 38.7061 107.091 55.9332C121.469 71.7888 123.252 86.547 125.118 102.156C126.901 116.996 128.74 132.358 142.239 149.283C152.995 162.752 162.928 167.141 172.558 171.393C182.491 175.782 191.875 179.897 200.024 194.024C206.966 206.039 207.432 214.269 208.118 226.696C208.749 237.943 209.518 251.933 215.362 274.92C220.109 293.684 225.487 314.971 239.974 336.751C254.818 359.108 271.281 370.163 281.104 376.774C287.058 380.779 290.323 382.974 289.308 385.278C288.183 387.692 282.475 388.268 277.482 388.268ZM53.3124 30.5589C48.8125 30.5589 44.3401 31.1899 39.9774 32.5889C25.6547 37.1974 10.6187 50.6664 10.2345 65.2052C10.015 73.6541 14.899 78.7838 21.1 85.2577C25.2432 89.5919 29.9351 94.5296 34.188 101.442C44.6968 118.532 42.7212 131.7 40.6634 145.607C38.9622 156.937 37.2336 168.678 42.7487 182.969C50.6509 203.433 66.7845 212.074 83.851 221.209C102.564 231.249 121.935 241.618 133.541 268.255C138.206 278.98 138.398 285.098 138.59 291.05C138.755 296.537 138.947 302.188 142.761 311.624C163.586 363.196 241.401 386.513 276.494 387.034C284.341 387.144 287.661 385.937 288.183 384.757C288.786 383.385 285.274 381.026 280.418 377.762C270.512 371.096 253.94 359.959 238.959 337.41C224.362 315.465 218.956 294.068 214.182 275.222C208.338 252.125 207.542 238.052 206.911 226.75C206.225 214.488 205.786 206.369 198.981 194.6C191.024 180.83 182.244 176.962 172.092 172.463C162.79 168.376 152.254 163.712 141.306 149.997C127.615 132.824 125.749 117.298 123.938 102.265C122.1 86.8488 120.344 72.2551 106.213 56.7013C93.6464 42.9306 73.205 30.5589 53.3124 30.5589Z" fill="black"/>
<path d="M268.564 382.617C268.482 382.617 268.4 382.59 268.317 382.562C245.352 372.934 226.968 361.55 213.688 348.767C202.932 338.397 195.277 326.821 190.86 314.312C186.25 301.227 185.729 288.856 185.235 276.896C184.494 258.983 183.781 242.057 169.513 224.94C159.47 212.87 148.962 208.097 138.81 203.488C127.478 198.331 116.804 193.476 109.451 178.772C104.347 168.54 104.238 160.311 104.155 150.765C104.045 141.356 103.936 130.712 99.2987 115.049C94.6891 99.5496 87.3082 84.7914 77.3207 71.1853C77.1287 70.9109 77.1835 70.5269 77.4579 70.3349C77.7323 70.1429 78.1164 70.1977 78.3085 70.472C88.3783 84.1879 95.8415 99.0833 100.479 114.719C105.17 130.547 105.28 141.301 105.39 150.792C105.5 160.558 105.582 168.266 110.576 178.251C117.737 192.598 127.752 197.152 139.358 202.418C149.154 206.862 160.294 211.91 170.501 224.199C185.015 241.646 185.729 258.763 186.497 276.896C186.991 288.773 187.512 301.063 192.067 313.956C201.753 341.47 227.572 364.211 268.839 381.493C269.141 381.63 269.305 381.986 269.168 382.288C269.031 382.48 268.811 382.617 268.564 382.617Z" fill="black"/>
<path d="M428.035 388.35H237.093V0H426.635C432.095 0 436.513 4.4165 436.513 9.87541V379.902C436.513 384.565 432.727 388.35 428.035 388.35Z" fill="#FF3811"/>
<path d="M416.62 388.68H233.032C228.669 388.68 225.129 385.141 225.129 380.779V8.58612C225.129 4.22448 228.669 0.685791 233.032 0.685791H416.62C420.983 0.685791 424.522 4.22448 424.522 8.58612V380.779C424.55 385.141 421.01 388.68 416.62 388.68Z" fill="white"/>
<path d="M284.451 148.927H261.924C260.415 148.927 259.18 147.692 259.18 146.184V125.719C259.18 124.211 260.415 122.976 261.924 122.976H284.451C285.96 122.976 287.194 124.211 287.194 125.719V146.184C287.167 147.692 285.96 148.927 284.451 148.927Z" fill="black"/>
<path d="M319.956 148.927H297.127C295.618 148.927 294.383 147.692 294.383 146.184V125.719C294.383 124.211 295.618 122.976 297.127 122.976H319.956C321.465 122.976 322.699 124.211 322.699 125.719V146.184C322.699 147.692 321.465 148.927 319.956 148.927Z" fill="black"/>
<path d="M355.268 149.256H333.044C331.535 149.256 330.3 148.021 330.3 146.513V126.049C330.3 124.54 331.535 123.305 333.044 123.305H355.268C356.778 123.305 358.012 124.54 358.012 126.049V146.513C358.012 148.021 356.778 149.256 355.268 149.256Z" fill="black"/>
<path d="M390.17 149.256H367.945C366.436 149.256 365.201 148.021 365.201 146.513V126.049C365.201 124.54 366.436 123.305 367.945 123.305H390.17C391.679 123.305 392.914 124.54 392.914 126.049V146.513C392.914 148.021 391.679 149.256 390.17 149.256Z" fill="black"/>
<path d="M284.451 184.149H261.924C260.415 184.149 259.18 182.915 259.18 181.406V160.942C259.18 159.433 260.415 158.199 261.924 158.199H284.451C285.96 158.199 287.194 159.433 287.194 160.942V181.406C287.167 182.915 285.96 184.149 284.451 184.149Z" fill="black"/>
<path d="M319.956 184.149H297.127C295.618 184.149 294.383 182.915 294.383 181.406V160.942C294.383 159.433 295.618 158.199 297.127 158.199H319.956C321.465 158.199 322.699 159.433 322.699 160.942V181.406C322.699 182.915 321.465 184.149 319.956 184.149Z" fill="black"/>
<path d="M355.268 184.478H333.044C331.535 184.478 330.3 183.244 330.3 181.735V161.298C330.3 159.79 331.535 158.555 333.044 158.555H355.268C356.778 158.555 358.012 159.79 358.012 161.298V181.762C358.012 183.244 356.778 184.478 355.268 184.478Z" fill="black"/>
<path d="M390.17 184.478H367.945C366.436 184.478 365.201 183.244 365.201 181.735V161.298C365.201 159.79 366.436 158.555 367.945 158.555H390.17C391.679 158.555 392.914 159.79 392.914 161.298V181.762C392.914 183.244 391.679 184.478 390.17 184.478Z" fill="black"/>
<path d="M285.164 219.371H262.637C261.128 219.371 259.894 218.137 259.894 216.628V196.164C259.894 194.655 261.128 193.421 262.637 193.421H285.164C286.673 193.421 287.908 194.655 287.908 196.164V216.628C287.88 218.137 286.673 219.371 285.164 219.371Z" fill="black"/>
<path d="M320.093 219.371H297.264C295.755 219.371 294.521 218.137 294.521 216.628V196.164C294.521 194.655 295.755 193.421 297.264 193.421H320.093C321.602 193.421 322.837 194.655 322.837 196.164V216.628C322.809 218.137 321.602 219.371 320.093 219.371Z" fill="black"/>
<path d="M355.982 219.7H333.757C332.248 219.7 331.013 218.466 331.013 216.957V196.493C331.013 194.984 332.248 193.75 333.757 193.75H355.982C357.491 193.75 358.726 194.984 358.726 196.493V216.985C358.726 218.493 357.491 219.7 355.982 219.7Z" fill="black"/>
<path d="M390.883 219.7H368.658C367.149 219.7 365.915 218.466 365.915 216.957V196.493C365.915 194.984 367.149 193.75 368.658 193.75H390.883C392.392 193.75 393.627 194.984 393.627 196.493V216.985C393.6 218.493 392.392 219.7 390.883 219.7Z" fill="black"/>
<path d="M285.164 254.594H262.637C261.128 254.594 259.894 253.359 259.894 251.85V231.386C259.894 229.878 261.128 228.643 262.637 228.643H285.164C286.673 228.643 287.908 229.878 287.908 231.386V251.85C287.88 253.359 286.673 254.594 285.164 254.594Z" fill="black"/>
<path d="M320.696 254.594H297.868C296.359 254.594 295.124 253.359 295.124 251.85V231.386C295.124 229.878 296.359 228.643 297.868 228.643H320.696C322.205 228.643 323.44 229.878 323.44 231.386V251.85C323.413 253.359 322.205 254.594 320.696 254.594Z" fill="black"/>
<path d="M355.982 254.923H333.757C332.248 254.923 331.013 253.688 331.013 252.18V231.716C331.013 230.207 332.248 228.972 333.757 228.972H355.982C357.491 228.972 358.726 230.207 358.726 231.716V252.18C358.726 253.716 357.491 254.923 355.982 254.923Z" fill="black"/>
<path d="M390.883 254.923H368.658C367.149 254.923 365.915 253.688 365.915 252.18V231.716C365.915 230.207 367.149 228.972 368.658 228.972H390.883C392.392 228.972 393.627 230.207 393.627 231.716V252.18C393.6 253.716 392.392 254.923 390.883 254.923Z" fill="black"/>
<path d="M281.652 149.969H261.211C259.702 149.969 258.467 148.735 258.467 147.226V126.762C258.467 125.253 259.702 124.019 261.211 124.019H281.679C283.189 124.019 284.423 125.253 284.423 126.762V147.226C284.396 148.735 283.161 149.969 281.652 149.969Z" fill="white"/>
<path d="M281.652 150.573H261.183C259.345 150.573 257.836 149.064 257.836 147.226V126.762C257.836 124.924 259.345 123.415 261.183 123.415H281.652C283.491 123.415 285 124.924 285 126.762V147.226C285 149.064 283.491 150.573 281.652 150.573ZM261.183 124.65C260.004 124.65 259.071 125.61 259.071 126.762V147.226C259.071 148.405 260.031 149.338 261.183 149.338H281.652C282.832 149.338 283.765 148.378 283.765 147.226V126.762C283.765 125.582 282.805 124.65 281.652 124.65H261.183Z" fill="black"/>
<path d="M316.883 149.969H296.414C294.905 149.969 293.67 148.735 293.67 147.226V126.762C293.67 125.253 294.905 124.019 296.414 124.019H316.883C318.392 124.019 319.626 125.253 319.626 126.762V147.226C319.626 148.735 318.392 149.969 316.883 149.969Z" fill="white"/>
<path d="M316.883 150.573H296.414C294.576 150.573 293.066 149.064 293.066 147.226V126.762C293.066 124.924 294.576 123.415 296.414 123.415H316.883C318.721 123.415 320.23 124.924 320.23 126.762V147.226C320.23 149.064 318.721 150.573 316.883 150.573ZM296.441 124.65C295.261 124.65 294.329 125.61 294.329 126.762V147.226C294.329 148.405 295.289 149.338 296.441 149.338H316.91C318.09 149.338 319.023 148.378 319.023 147.226V126.762C319.023 125.582 318.063 124.65 316.91 124.65H296.441Z" fill="black"/>
<path d="M352.772 150.298H332.303C330.794 150.298 329.559 149.064 329.559 147.555V127.091C329.559 125.582 330.794 124.348 332.303 124.348H352.772C354.281 124.348 355.516 125.582 355.516 127.091V147.555C355.516 149.064 354.281 150.298 352.772 150.298Z" fill="white"/>
<path d="M352.772 150.902H332.303C330.465 150.902 328.956 149.393 328.956 147.555V127.091C328.956 125.253 330.465 123.744 332.303 123.744H352.772C354.61 123.744 356.119 125.253 356.119 127.091V147.555C356.119 149.42 354.638 150.902 352.772 150.902ZM332.33 124.979C331.151 124.979 330.218 125.939 330.218 127.091V147.555C330.218 148.735 331.178 149.667 332.33 149.667H352.799C353.979 149.667 354.912 148.707 354.912 147.555V127.091C354.912 125.911 353.952 124.979 352.799 124.979H332.33Z" fill="black"/>
<path d="M387.673 150.298H367.204C365.695 150.298 364.46 149.064 364.46 147.555V127.091C364.46 125.582 365.695 124.348 367.204 124.348H387.673C389.182 124.348 390.417 125.582 390.417 127.091V147.555C390.417 149.064 389.182 150.298 387.673 150.298Z" fill="white"/>
<path d="M387.673 150.902H367.204C365.366 150.902 363.857 149.393 363.857 147.555V127.091C363.857 125.253 365.366 123.744 367.204 123.744H387.673C389.512 123.744 391.021 125.253 391.021 127.091V147.555C391.021 149.393 389.512 150.902 387.673 150.902ZM367.232 124.979C366.052 124.979 365.119 125.939 365.119 127.091V147.555C365.119 148.735 366.079 149.667 367.232 149.667H387.701C388.881 149.667 389.813 148.707 389.813 147.555V127.091C389.813 125.911 388.853 124.979 387.701 124.979H367.232Z" fill="black"/>
<path d="M281.652 185.191H261.183C259.674 185.191 258.439 183.957 258.439 182.448V161.984C258.439 160.475 259.674 159.241 261.183 159.241H281.652C283.161 159.241 284.396 160.475 284.396 161.984V182.448C284.396 183.957 283.161 185.191 281.652 185.191Z" fill="white"/>
<path d="M281.652 185.795H261.183C259.345 185.795 257.836 184.286 257.836 182.448V161.984C257.836 160.146 259.345 158.637 261.183 158.637H281.652C283.491 158.637 285 160.146 285 161.984V182.448C285 184.286 283.491 185.795 281.652 185.795ZM261.183 159.872C260.004 159.872 259.071 160.832 259.071 161.984V182.448C259.071 183.628 260.031 184.56 261.183 184.56H281.652C282.832 184.56 283.765 183.6 283.765 182.448V161.984C283.765 160.805 282.805 159.872 281.652 159.872H261.183Z" fill="black"/>
<path d="M316.883 185.191H296.414C294.905 185.191 293.67 183.957 293.67 182.448V161.984C293.67 160.475 294.905 159.241 296.414 159.241H316.883C318.392 159.241 319.626 160.475 319.626 161.984V182.448C319.626 183.957 318.392 185.191 316.883 185.191Z" fill="white"/>
<path d="M316.883 185.795H296.414C294.576 185.795 293.066 184.286 293.066 182.448V161.984C293.066 160.146 294.576 158.637 296.414 158.637H316.883C318.721 158.637 320.23 160.146 320.23 161.984V182.448C320.23 184.286 318.721 185.795 316.883 185.795ZM296.414 159.872C295.234 159.872 294.301 160.832 294.301 161.984V182.448C294.301 183.628 295.261 184.56 296.414 184.56H316.883C318.063 184.56 318.995 183.6 318.995 182.448V161.984C318.995 160.805 318.035 159.872 316.883 159.872H296.414Z" fill="black"/>
<path d="M352.772 185.521H332.303C330.794 185.521 329.559 184.286 329.559 182.777V162.313C329.559 160.805 330.794 159.57 332.303 159.57H352.772C354.281 159.57 355.516 160.805 355.516 162.313V182.777C355.516 184.286 354.281 185.521 352.772 185.521Z" fill="white"/>
<path d="M352.772 186.124H332.303C330.465 186.124 328.956 184.615 328.956 182.777V162.313C328.956 160.475 330.465 158.967 332.303 158.967H352.772C354.61 158.967 356.119 160.475 356.119 162.313V182.777C356.119 184.643 354.638 186.124 352.772 186.124ZM332.33 160.201C331.151 160.201 330.218 161.161 330.218 162.313V182.777C330.218 183.957 331.178 184.89 332.33 184.89H352.799C353.979 184.89 354.912 183.93 354.912 182.777V162.313C354.912 161.134 353.952 160.201 352.799 160.201H332.33Z" fill="black"/>
<path d="M387.673 185.521H367.204C365.695 185.521 364.46 184.286 364.46 182.777V162.313C364.46 160.805 365.695 159.57 367.204 159.57H387.673C389.182 159.57 390.417 160.805 390.417 162.313V182.777C390.417 184.286 389.182 185.521 387.673 185.521Z" fill="white"/>
<path d="M387.673 186.124H367.204C365.366 186.124 363.857 184.615 363.857 182.777V162.313C363.857 160.475 365.366 158.967 367.204 158.967H387.673C389.512 158.967 391.021 160.475 391.021 162.313V182.777C391.021 184.643 389.512 186.124 387.673 186.124ZM367.232 160.201C366.052 160.201 365.119 161.161 365.119 162.313V182.777C365.119 183.957 366.079 184.89 367.232 184.89H387.701C388.881 184.89 389.813 183.93 389.813 182.777V162.313C389.813 161.134 388.853 160.201 387.701 160.201H367.232Z" fill="black"/>
<path d="M282.311 220.414H261.842C260.333 220.414 259.098 219.179 259.098 217.671V197.234C259.098 195.725 260.333 194.491 261.842 194.491H282.311C283.82 194.491 285.055 195.725 285.055 197.234V217.698C285.055 219.179 283.82 220.414 282.311 220.414Z" fill="white"/>
<path d="M282.311 221.017H261.842C260.004 221.017 258.495 219.508 258.495 217.67V197.234C258.495 195.396 260.004 193.887 261.842 193.887H282.311C284.149 193.887 285.658 195.396 285.658 197.234V217.698C285.658 219.536 284.149 221.017 282.311 221.017ZM261.87 195.094C260.69 195.094 259.757 196.054 259.757 197.206V217.67C259.757 218.85 260.717 219.783 261.87 219.783H282.338C283.518 219.783 284.451 218.823 284.451 217.67V197.234C284.451 196.054 283.491 195.122 282.338 195.122H261.87V195.094Z" fill="black"/>
<path d="M317.541 220.414H297.072C295.563 220.414 294.329 219.179 294.329 217.671V197.234C294.329 195.725 295.563 194.491 297.072 194.491H317.541C319.05 194.491 320.285 195.725 320.285 197.234V217.698C320.285 219.179 319.05 220.414 317.541 220.414Z" fill="white"/>
<path d="M317.541 221.017H297.073C295.234 221.017 293.725 219.508 293.725 217.67V197.234C293.725 195.396 295.234 193.887 297.073 193.887H317.541C319.38 193.887 320.889 195.396 320.889 197.234V217.698C320.889 219.536 319.38 221.017 317.541 221.017ZM297.1 195.094C295.92 195.094 294.987 196.054 294.987 197.206V217.67C294.987 218.85 295.948 219.783 297.1 219.783H317.569C318.749 219.783 319.682 218.823 319.682 217.67V197.234C319.682 196.054 318.721 195.122 317.569 195.122H297.1V195.094Z" fill="black"/>
<path d="M353.458 220.743H332.989C331.48 220.743 330.245 219.508 330.245 218V197.536C330.245 196.027 331.48 194.792 332.989 194.792H353.458C354.967 194.792 356.202 196.027 356.202 197.536V218C356.174 219.536 354.967 220.743 353.458 220.743Z" fill="white"/>
<path d="M353.458 221.346H332.989C331.151 221.346 329.642 219.838 329.642 218V197.536C329.642 195.698 331.151 194.189 332.989 194.189H353.458C355.296 194.189 356.805 195.698 356.805 197.536V218C356.778 219.865 355.296 221.346 353.458 221.346ZM332.989 195.423C331.809 195.423 330.876 196.383 330.876 197.536V218C330.876 219.179 331.837 220.112 332.989 220.112H353.458C354.638 220.112 355.571 219.152 355.571 218V197.536C355.571 196.356 354.61 195.423 353.458 195.423H332.989Z" fill="black"/>
<path d="M388.359 220.743H367.89C366.381 220.743 365.146 219.508 365.146 218V197.536C365.146 196.027 366.381 194.792 367.89 194.792H388.359C389.868 194.792 391.103 196.027 391.103 197.536V218C391.075 219.536 389.868 220.743 388.359 220.743Z" fill="white"/>
<path d="M388.359 221.346H367.89C366.052 221.346 364.543 219.838 364.543 218V197.536C364.543 195.698 366.052 194.189 367.89 194.189H388.359C390.198 194.189 391.707 195.698 391.707 197.536V218C391.679 219.865 390.198 221.346 388.359 221.346ZM367.89 195.423C366.711 195.423 365.778 196.383 365.778 197.536V218C365.778 219.179 366.738 220.112 367.89 220.112H388.359C389.539 220.112 390.472 219.152 390.472 218V197.536C390.472 196.356 389.512 195.423 388.359 195.423H367.89Z" fill="black"/>
<path d="M282.311 255.636H261.842C260.333 255.636 259.098 254.402 259.098 252.893V232.429C259.098 230.92 260.333 229.686 261.842 229.686H282.311C283.82 229.686 285.055 230.92 285.055 232.429V252.893C285.055 254.402 283.82 255.636 282.311 255.636Z" fill="white"/>
<path d="M282.311 256.239H261.842C260.004 256.239 258.495 254.731 258.495 252.893V232.429C258.495 230.591 260.004 229.082 261.842 229.082H282.311C284.149 229.082 285.658 230.591 285.658 232.429V252.893C285.658 254.758 284.149 256.239 282.311 256.239ZM261.87 230.316C260.69 230.316 259.757 231.277 259.757 232.429V252.893C259.757 254.072 260.717 255.005 261.87 255.005H282.338C283.518 255.005 284.451 254.045 284.451 252.893V232.429C284.451 231.249 283.491 230.316 282.338 230.316H261.87Z" fill="black"/>
<path d="M317.541 255.636H297.072C295.563 255.636 294.329 254.402 294.329 252.893V232.429C294.329 230.92 295.563 229.686 297.072 229.686H317.541C319.05 229.686 320.285 230.92 320.285 232.429V252.893C320.285 254.402 319.05 255.636 317.541 255.636Z" fill="white"/>
<path d="M317.541 256.239H297.073C295.234 256.239 293.725 254.731 293.725 252.893V232.429C293.725 230.591 295.234 229.082 297.073 229.082H317.541C319.38 229.082 320.889 230.591 320.889 232.429V252.893C320.889 254.758 319.38 256.239 317.541 256.239ZM297.1 230.316C295.92 230.316 294.987 231.277 294.987 232.429V252.893C294.987 254.072 295.948 255.005 297.1 255.005H317.569C318.749 255.005 319.682 254.045 319.682 252.893V232.429C319.682 231.249 318.721 230.316 317.569 230.316H297.1Z" fill="black"/>
<path d="M353.458 255.965H332.989C331.48 255.965 330.245 254.731 330.245 253.222V232.758C330.245 231.249 331.48 230.015 332.989 230.015H353.458C354.967 230.015 356.202 231.249 356.202 232.758V253.222C356.174 254.758 354.967 255.965 353.458 255.965Z" fill="white"/>
<path d="M353.458 256.569H332.989C331.151 256.569 329.642 255.06 329.642 253.222V232.758C329.642 230.92 331.151 229.411 332.989 229.411H353.458C355.296 229.411 356.805 230.92 356.805 232.758V253.222C356.778 255.087 355.296 256.569 353.458 256.569ZM332.989 230.646C331.809 230.646 330.876 231.606 330.876 232.758V253.222C330.876 254.402 331.837 255.334 332.989 255.334H353.458C354.638 255.334 355.571 254.374 355.571 253.222V232.758C355.571 231.578 354.61 230.646 353.458 230.646H332.989Z" fill="black"/>
<path d="M388.359 255.965H367.89C366.381 255.965 365.146 254.731 365.146 253.222V232.758C365.146 231.249 366.381 230.015 367.89 230.015H388.359C389.868 230.015 391.103 231.249 391.103 232.758V253.222C391.075 254.758 389.868 255.965 388.359 255.965Z" fill="white"/>
<path d="M388.359 256.569H367.89C366.052 256.569 364.543 255.06 364.543 253.222V232.758C364.543 230.92 366.052 229.411 367.89 229.411H388.359C390.198 229.411 391.707 230.92 391.707 232.758V253.222C391.679 255.087 390.198 256.569 388.359 256.569ZM367.89 230.646C366.711 230.646 365.778 231.606 365.778 232.758V253.222C365.778 254.402 366.738 255.334 367.89 255.334H388.359C389.539 255.334 390.472 254.374 390.472 253.222V232.758C390.472 231.578 389.512 230.646 388.359 230.646H367.89Z" fill="black"/>
<path d="M344.238 281.559H310.462C309.502 281.559 308.733 280.791 308.733 279.831V266.06C308.733 265.1 309.502 264.332 310.462 264.332H344.238C345.199 264.332 345.967 265.1 345.967 266.06V279.831C345.967 280.791 345.199 281.559 344.238 281.559Z" fill="white"/>
<path d="M344.238 282.162H310.462C309.173 282.162 308.13 281.12 308.13 279.831V266.06C308.13 264.771 309.173 263.728 310.462 263.728H344.238C345.528 263.728 346.571 264.771 346.571 266.06V279.831C346.571 281.12 345.528 282.162 344.238 282.162ZM310.462 264.935C309.858 264.935 309.337 265.429 309.337 266.06V279.831C309.337 280.434 309.831 280.955 310.462 280.955H344.238C344.842 280.955 345.363 280.462 345.363 279.831V266.06C345.363 265.456 344.87 264.935 344.238 264.935H310.462Z" fill="black"/>
<path d="M416.62 389.311H233.032C228.34 389.311 224.499 385.498 224.499 380.779V8.58613C224.499 3.89531 228.312 0.0548706 233.032 0.0548706H416.62C421.312 0.0548706 425.153 3.86788 425.153 8.58613V380.779C425.153 385.47 421.34 389.311 416.62 389.311ZM233.032 1.26187C228.998 1.26187 225.733 4.52624 225.733 8.5587V380.752C225.733 384.784 228.998 388.049 233.032 388.049H416.62C420.654 388.049 423.919 384.784 423.919 380.752V8.58613C423.919 4.55367 420.654 1.2893 416.62 1.2893H233.032V1.26187Z" fill="black"/>
<path d="M351.756 392.685H304.7C303.548 392.685 302.615 391.752 302.615 390.6V317.248C302.615 312.996 306.072 309.539 310.325 309.539H348.574C351.647 309.539 354.144 312.036 354.144 315.108V390.298C354.144 391.615 353.073 392.685 351.756 392.685Z" fill="white"/>
<path d="M351.757 393.288H304.7C303.219 393.288 302.011 392.081 302.011 390.6V317.248C302.011 312.666 305.743 308.936 310.325 308.936H348.574C351.976 308.936 354.747 311.706 354.747 315.108V390.298C354.747 391.944 353.403 393.288 351.757 393.288ZM310.325 310.143C306.401 310.143 303.246 313.325 303.246 317.22V390.572C303.246 391.395 303.904 392.054 304.728 392.054H351.757C352.744 392.054 353.54 391.258 353.54 390.271V315.08C353.54 312.337 351.318 310.115 348.574 310.115H310.325V310.143Z" fill="black"/>
<path d="M335.321 346.435H320.34C318.447 346.435 316.91 344.899 316.91 343.006V328.028C316.91 326.135 318.447 324.599 320.34 324.599H335.321C337.214 324.599 338.751 326.135 338.751 328.028V343.006C338.751 344.899 337.214 346.435 335.321 346.435Z" fill="black"/>
<path d="M392.365 110.989H258.577C256.052 110.989 254.022 108.959 254.022 106.435V27.8157C254.022 25.292 256.052 23.2621 258.577 23.2621H392.365C394.889 23.2621 396.92 25.292 396.92 27.8157V106.435C396.92 108.959 394.889 110.989 392.365 110.989Z" fill="white"/>
<path d="M392.365 111.592H258.577C255.723 111.592 253.418 109.288 253.418 106.435V27.8157C253.418 24.9628 255.723 22.6586 258.577 22.6586H392.365C395.219 22.6586 397.523 24.9628 397.523 27.8157V106.435C397.551 109.288 395.219 111.592 392.365 111.592ZM258.577 23.8656C256.409 23.8656 254.626 25.6486 254.626 27.8157V106.435C254.626 108.602 256.409 110.385 258.577 110.385H392.365C394.533 110.385 396.316 108.602 396.316 106.435V27.8157C396.316 25.6486 394.533 23.8656 392.365 23.8656H258.577Z" fill="black"/>
<path d="M287.112 76.7813C290.628 76.7813 293.478 73.932 293.478 70.4172C293.478 66.9023 290.628 64.053 287.112 64.053C283.597 64.053 280.747 66.9023 280.747 70.4172C280.747 73.932 283.597 76.7813 287.112 76.7813Z" fill="black"/>
<path d="M307.142 76.4796C310.658 76.4796 313.508 73.6302 313.508 70.1154C313.508 66.6006 310.658 63.7513 307.142 63.7513C303.626 63.7513 300.776 66.6006 300.776 70.1154C300.776 73.6302 303.626 76.4796 307.142 76.4796Z" fill="black"/>
<path d="M327.474 76.1778C330.989 76.1778 333.839 73.3285 333.839 69.8136C333.839 66.2988 330.989 63.4495 327.474 63.4495C323.958 63.4495 321.108 66.2988 321.108 69.8136C321.108 73.3285 323.958 76.1778 327.474 76.1778Z" fill="black"/>
<path d="M347.531 75.876C351.047 75.876 353.897 73.0267 353.897 69.5119C353.897 65.9971 351.047 63.1477 347.531 63.1477C344.016 63.1477 341.166 65.9971 341.166 69.5119C341.166 73.0267 344.016 75.876 347.531 75.876Z" fill="black"/>
<path d="M367.259 75.2726C370.775 75.2726 373.625 72.4232 373.625 68.9084C373.625 65.3936 370.775 62.5443 367.259 62.5443C363.744 62.5443 360.894 65.3936 360.894 68.9084C360.894 72.4232 363.744 75.2726 367.259 75.2726Z" fill="black"/>
<path d="M254.873 471.962C254.571 471.962 254.297 471.743 254.269 471.441C254.214 471.112 254.461 470.81 254.791 470.755C307.801 464.144 364.653 420.638 365.229 420.199C365.503 420.007 365.888 420.034 366.08 420.308C366.272 420.583 366.244 420.967 365.97 421.159C365.394 421.598 308.268 465.296 254.928 471.935C254.928 471.962 254.9 471.962 254.873 471.962Z" fill="black"/>
<path d="M250.318 481.454C249.989 481.454 249.714 481.207 249.714 480.878C249.687 480.548 249.961 480.247 250.291 480.247C291.722 478.326 345.473 444.832 346.022 444.476C346.296 444.311 346.681 444.393 346.873 444.668C347.065 444.942 346.955 445.326 346.681 445.518C346.132 445.847 292.106 479.533 250.373 481.454C250.345 481.454 250.318 481.454 250.318 481.454Z" fill="black"/>
<path d="M245.654 477.86C244.556 477.86 243.459 477.449 242.635 476.626C240.934 474.952 240.907 472.209 242.581 470.508C244.254 468.808 246.998 468.78 248.699 470.454C250.4 472.127 250.428 474.87 248.754 476.571C247.904 477.421 246.779 477.86 245.654 477.86ZM243.459 475.748C244.693 476.955 246.669 476.927 247.876 475.693C249.083 474.459 249.056 472.484 247.821 471.277C246.587 470.07 244.611 470.097 243.404 471.331C242.224 472.566 242.224 474.568 243.459 475.748Z" fill="black"/>
<path d="M376.561 418.662H376.534C376.314 418.662 376.122 418.525 376.012 418.333L370.744 407.635C370.662 407.443 370.662 407.251 370.772 407.059C370.881 406.894 371.046 406.757 371.238 406.757L384.244 405.605C384.463 405.578 384.71 405.687 384.82 405.907C384.93 406.099 384.93 406.346 384.82 406.538L377.11 418.416C376.945 418.553 376.753 418.662 376.561 418.662ZM372.226 407.882L376.643 416.825L383.091 406.894L372.226 407.882Z" fill="black"/>
<path d="M449.272 111.043C449.107 111.043 448.97 110.989 448.833 110.879C448.586 110.632 448.586 110.248 448.833 110.029L450.945 107.916C451.192 107.669 451.576 107.669 451.796 107.916C452.043 108.163 452.043 108.547 451.796 108.767L449.683 110.879C449.573 110.989 449.409 111.043 449.272 111.043Z" fill="black"/>
<path d="M457.256 103.033C457.091 103.033 456.954 102.979 456.817 102.869C456.57 102.622 456.57 102.238 456.817 102.018L458.93 99.9062C459.177 99.6593 459.561 99.6593 459.78 99.9062C460.027 100.153 460.027 100.537 459.78 100.757L457.668 102.869C457.585 102.979 457.421 103.033 457.256 103.033Z" fill="black"/>
<path d="M459.396 111.043C459.232 111.043 459.094 110.989 458.957 110.879L456.844 108.767C456.597 108.52 456.597 108.136 456.844 107.916C457.091 107.697 457.475 107.669 457.695 107.916L459.808 110.029C460.055 110.275 460.055 110.659 459.808 110.879C459.698 110.989 459.533 111.043 459.396 111.043Z" fill="black"/>
<path d="M451.384 103.033C451.22 103.033 451.083 102.979 450.945 102.869L448.833 100.757C448.586 100.51 448.586 100.126 448.833 99.9062C449.08 99.6593 449.464 99.6593 449.683 99.9062L451.796 102.018C452.043 102.265 452.043 102.649 451.796 102.869C451.686 102.979 451.522 103.033 451.384 103.033Z" fill="black"/>
<path d="M12.4844 200.526C12.4021 200.526 12.3198 200.498 12.2374 200.471C11.9356 200.334 11.7984 199.977 11.9356 199.675L13.1703 196.96C13.3075 196.658 13.6642 196.521 13.966 196.658C14.2679 196.795 14.4051 197.152 14.2679 197.453L13.0332 200.169C12.9508 200.389 12.7313 200.526 12.4844 200.526Z" fill="black"/>
<path d="M17.1763 190.239C17.094 190.239 17.0117 190.211 16.9293 190.184C16.6275 190.047 16.4903 189.69 16.6275 189.388L17.8622 186.673C17.9994 186.371 18.3561 186.234 18.6579 186.371C18.9598 186.508 19.097 186.865 18.9598 187.166L17.725 189.882C17.6427 190.102 17.4232 190.239 17.1763 190.239Z" fill="black"/>
<path d="M21.9781 196.987C21.8958 196.987 21.8135 196.96 21.7312 196.932L19.0148 195.698C18.713 195.561 18.5758 195.204 18.713 194.902C18.8502 194.6 19.2069 194.463 19.5087 194.6L22.2251 195.835C22.5269 195.972 22.6641 196.329 22.5269 196.63C22.4171 196.85 22.1976 196.987 21.9781 196.987Z" fill="black"/>
<path d="M11.6612 192.296C11.5789 192.296 11.4966 192.269 11.4143 192.241L8.6979 191.007C8.39608 190.87 8.25889 190.513 8.39608 190.211C8.53327 189.91 8.88996 189.772 9.19178 189.91L11.9082 191.144C12.21 191.281 12.3472 191.638 12.21 191.94C12.1277 192.159 11.9082 192.296 11.6612 192.296Z" fill="black"/>
<path d="M39.7577 233.8C37.3431 233.8 35.395 231.853 35.395 229.439C35.395 227.025 37.3431 225.077 39.7577 225.077C42.1722 225.077 44.1203 227.025 44.1203 229.439C44.1478 231.853 42.1722 233.8 39.7577 233.8ZM39.7577 226.284C38.0291 226.284 36.6023 227.711 36.6023 229.439C36.6023 231.167 38.0291 232.593 39.7577 232.593C41.4863 232.593 42.9131 231.167 42.9131 229.439C42.9131 227.683 41.5137 226.284 39.7577 226.284Z" fill="black"/>
<path d="M121.688 372.084C110.164 388.049 101.356 415.343 94.6615 447.054C94.2225 449.139 89.2013 485.98 91.2592 486.638C133.761 499.997 136.806 499.998 165.342 501.808C172.531 502.274 202.987 501.808 224.115 501.204C225.953 501.15 227.517 499.97 227.435 498.132C224.828 450.127 220.246 392.246 220.246 392.246L121.688 372.084Z" fill="white"/>
<path d="M227.407 498.763C227.078 498.763 226.831 498.516 226.804 498.187C224.334 452.98 220.109 398.308 219.67 392.767L121.963 372.769C111.618 387.281 102.646 412.326 95.2654 447.191C94.6343 450.209 90.3265 483.593 91.5887 486.144C91.8082 486.282 91.9179 486.556 91.8356 486.83C91.7259 487.159 91.3966 487.324 91.0673 487.214C90.354 486.995 89.2839 486.666 91.424 467.326C92.4393 458 93.8386 448.069 94.0581 446.945C101.521 411.64 110.658 386.321 121.194 371.727C121.332 371.535 121.579 371.453 121.798 371.48L220.328 391.67C220.603 391.725 220.795 391.944 220.822 392.218C220.877 392.794 225.404 450.648 228.011 498.132C228.038 498.461 227.764 498.763 227.435 498.763H227.407Z" fill="black"/>
<path d="M244.776 252.673C244.776 252.673 271.418 270.586 283.875 267.212C301.408 262.466 309.118 217.835 309.859 213.885C310.6 209.935 314.002 189.827 317.487 182.338C320.779 175.289 322.782 168.074 323.825 163.657C324.456 160.997 326.294 159.68 328.078 159.954C329.669 160.201 330.712 161.436 329.834 165.413C328.791 170.022 327.886 174.658 327.035 178.608C326.761 179.842 326.267 181.022 327.145 180.144C329.175 178.087 332.468 175.81 335.788 174.685C337.242 174.191 348.848 161.628 351.949 163.164C354.72 164.535 338.971 181.79 339.602 183.847C341.166 188.922 340.26 195.725 337.791 201.842C333.593 212.266 326.87 211.114 325.718 216.025C324.566 220.935 318.502 283.26 313.673 294.671C306.703 311.075 239.892 299.115 239.892 299.115L244.776 252.673Z" fill="white"/>
<path d="M283.82 303.971C263.873 303.971 241.401 300.02 239.782 299.719C239.48 299.664 239.261 299.362 239.288 299.06L244.172 252.591C244.199 252.372 244.337 252.207 244.529 252.097C244.721 252.015 244.94 252.015 245.132 252.152C245.407 252.317 271.665 269.873 283.71 266.609C298.664 262.549 306.484 228.671 309.173 214.269L309.283 213.748C309.365 213.309 309.475 212.651 309.639 211.828C310.792 205.518 313.837 188.785 316.965 182.064C320.148 175.261 322.151 168.211 323.276 163.493C323.962 160.667 325.938 158.994 328.215 159.351C329.093 159.488 329.751 159.872 330.19 160.503C330.904 161.545 330.986 163.191 330.465 165.55C329.806 168.458 329.23 171.311 328.654 174.109C328.325 175.727 327.995 177.264 327.694 178.745C327.694 178.8 327.666 178.827 327.666 178.882C329.614 177.154 332.495 175.179 335.651 174.136C336.007 173.999 337.654 172.491 339.08 171.174C344.925 165.825 349.946 161.49 352.278 162.643C352.607 162.807 352.799 163.081 352.909 163.438C353.321 165.166 350.44 169.199 345.666 175.59C343.361 178.663 340.233 182.86 340.26 183.71C341.769 188.593 341.083 195.478 338.422 202.089C335.925 208.261 332.495 210.566 329.971 212.239C328.133 213.446 326.816 214.351 326.377 216.189C326.047 217.561 325.279 224.007 324.319 232.127C321.877 252.564 317.788 286.743 314.304 294.946C311.258 301.913 298.198 303.971 283.82 303.971ZM240.55 298.621C246.971 299.719 306.731 309.457 313.096 294.452C316.499 286.414 320.587 252.344 323.029 231.962C324.044 223.486 324.785 217.341 325.114 215.887C325.663 213.583 327.309 212.486 329.23 211.197C331.754 209.523 334.882 207.438 337.215 201.623C339.766 195.286 340.425 188.703 338.998 184.012C338.669 182.942 340.26 180.638 344.595 174.85C347.422 171.064 352.141 164.755 351.62 163.685C349.864 162.835 343.086 169.062 339.821 172.052C337.544 174.164 336.501 175.097 335.952 175.261C332.468 176.413 329.258 178.855 327.556 180.555C327.337 180.775 326.87 181.241 326.377 180.967C325.855 180.665 326.02 180.117 326.239 179.294C326.294 179.047 326.377 178.772 326.431 178.498C326.733 177.044 327.062 175.481 327.392 173.89C327.968 171.119 328.572 168.239 329.23 165.331C329.669 163.356 329.642 161.984 329.148 161.244C328.901 160.887 328.544 160.667 327.995 160.585C326.377 160.338 324.95 161.628 324.428 163.822C323.303 168.595 321.273 175.727 318.035 182.613C314.962 189.196 311.944 205.82 310.792 212.074C310.654 212.897 310.517 213.556 310.435 213.995L310.325 214.516C307.609 229.137 299.624 263.564 284.012 267.788C282.887 268.09 281.652 268.227 280.335 268.227C268.29 268.227 249.495 256.459 245.269 253.716L240.55 298.621Z" fill="black"/>
<path d="M132.663 228.424C164.766 214.104 226.831 217.067 270.375 263.783C275.506 269.27 260.717 310.691 247.519 307.866C235.858 305.342 226.365 302.434 225.487 309.183C224.252 318.509 232.621 393.178 220.438 414.246C198.707 451.882 133.843 446.259 100.479 427.907C91.671 423.052 100.918 409.747 107.393 366.268C112.222 333.871 115.021 307.043 109.067 317.412C106.131 322.487 75.455 291.928 78.6653 282.821C85.662 262.741 98.0092 243.868 132.663 228.424Z" fill="black"/>
<path d="M302.807 217.863L328.517 221.346C330.273 280.599 324.621 323.2 247.492 307.838L257.919 252.728C286.674 272.781 297.375 248.394 302.807 217.863Z" fill="black"/>
<path d="M85.7717 267.98C48.2912 322.46 69.8302 433.832 120.646 434.655L119.329 386.513C115.076 381.136 112.935 328.001 120.975 311.13L85.7717 267.98Z" fill="black"/>
<path d="M98.2288 426.782C98.1739 426.782 98.119 426.782 98.0642 426.755C97.7349 426.673 97.5428 426.343 97.6526 426.014C105.226 398.857 109.451 355.378 110.878 323.749C110.905 323.42 111.18 323.145 111.509 323.173C111.838 323.2 112.112 323.475 112.085 323.804C110.658 355.515 106.433 399.076 98.8324 426.343C98.7501 426.59 98.5032 426.782 98.2288 426.782Z" fill="white"/>
<path d="M152.117 223.513C152.473 222.224 165.095 211.773 161.775 188.236C161.775 188.236 144.681 165.029 149.894 154.77C155.08 144.538 154.641 129.395 172.092 129.258C189.542 129.121 199.804 136.966 203.838 147.144C207.871 157.321 208.914 167.525 209.298 173.451C209.572 177.84 208.996 187.633 208.667 192.433C208.557 194.079 207.405 195.478 205.813 195.917L200.545 197.398C198.816 197.892 197.664 199.456 197.691 201.239L197.884 210.648C198.707 233.691 191.244 230.481 185.783 231.716C171.817 234.925 150.278 230.262 152.117 223.513Z" fill="white"/>
<path d="M175.631 233.389C166.11 233.389 156.342 231.057 152.776 227.354C151.596 226.119 151.157 224.72 151.513 223.349C151.596 223.02 151.898 222.691 152.529 221.922C155.355 218.493 163.915 208.124 161.199 188.483C159.717 186.426 144.187 164.672 149.346 154.523C150.58 152.081 151.513 149.311 152.419 146.622C155.355 137.844 158.428 128.764 172.092 128.682C187.979 128.572 199.75 135.211 204.387 146.952C207.405 154.605 209.271 163.52 209.874 173.423C210.149 177.757 209.6 187.221 209.243 192.488C209.106 194.381 207.789 195.999 205.951 196.521L200.682 198.002C199.228 198.413 198.24 199.758 198.268 201.266L198.46 210.675C199.173 230.893 193.411 231.496 188.308 232.017C187.457 232.1 186.634 232.182 185.893 232.374C182.765 233.06 179.226 233.389 175.631 233.389ZM152.693 223.678C152.446 224.638 152.748 225.571 153.654 226.504C158.208 231.249 174.644 233.636 185.619 231.139C186.47 230.947 187.348 230.865 188.198 230.783C193 230.289 197.939 229.768 197.253 210.675L197.061 201.239C197.006 199.182 198.378 197.344 200.353 196.795L205.621 195.314C206.966 194.93 207.926 193.75 208.036 192.351C208.393 187.112 208.941 177.73 208.667 173.451C208.063 163.657 206.225 154.879 203.262 147.336C198.817 136.116 187.485 129.752 172.092 129.834C159.278 129.917 156.507 138.201 153.571 146.952C152.666 149.667 151.705 152.493 150.443 155.017C145.477 164.81 162.104 187.605 162.269 187.852C162.324 187.935 162.379 188.017 162.379 188.127C165.232 208.399 156.37 219.124 153.461 222.663C153.132 223.102 152.776 223.541 152.693 223.678Z" fill="black"/>
<path d="M197.911 162.889C200.024 162.012 201.396 159.954 201.451 157.65C201.506 154.907 199.832 148.597 203.838 147.144C214.594 143.248 210.423 130.301 204.002 125.527C197.609 120.754 172.531 112.799 159.827 119.712C159.827 119.712 154.806 123.909 155.931 128.079C155.931 128.079 145.834 128.38 143.474 135.842C141.114 143.303 137.136 170.79 162.324 191.556C162.324 191.556 168.827 192.324 176.043 190.403C180.241 189.279 183.314 185.685 183.918 181.378C184.823 174.767 187.485 164.672 189.323 161.655C189.323 161.655 188.171 156.964 190.777 155.785C192.478 155.017 194.564 156.992 195.469 158.61L197.911 162.889Z" fill="black"/>
<path d="M207.954 194.792C207.926 194.792 207.899 194.792 207.844 194.792C207.762 194.765 198.378 193.092 196.21 182.915C196.128 182.585 196.347 182.256 196.677 182.201C197.006 182.119 197.335 182.338 197.39 182.668C199.421 192.049 207.954 193.585 208.036 193.585C208.365 193.64 208.585 193.942 208.53 194.271C208.503 194.573 208.256 194.792 207.954 194.792Z" fill="black"/>
<path d="M196.128 173.259C196.128 173.259 196.1 173.259 196.128 173.259C195.798 173.259 188.225 172.929 186.223 159.543C186.168 159.214 186.415 158.912 186.744 158.857C187.073 158.802 187.375 159.049 187.43 159.378C189.268 171.695 195.881 172.052 196.155 172.079C196.484 172.079 196.759 172.381 196.731 172.71C196.704 173.012 196.457 173.259 196.128 173.259Z" fill="black"/>
<path d="M304.975 423.436L303.795 419.156L298.938 419.376C298.499 418.443 297.978 417.538 297.374 416.687L299.953 412.573L296.798 409.445L292.71 412.051C291.859 411.475 290.954 410.954 290.021 410.515L290.185 405.66L285.878 404.535L283.655 408.842C282.64 408.76 281.597 408.76 280.555 408.869L278.277 404.59L273.997 405.77L274.216 410.625C273.284 411.064 272.378 411.585 271.555 412.189L267.439 409.61L264.311 412.765L266.918 416.852C266.342 417.702 265.82 418.608 265.381 419.54L260.525 419.376L259.4 423.683L263.708 425.904C263.625 426.919 263.625 427.962 263.735 429.004L259.455 431.281L260.635 435.56L265.491 435.341C265.93 436.274 266.451 437.179 267.055 438.029L264.476 442.144L267.631 445.271L271.72 442.665C272.57 443.241 273.476 443.763 274.409 444.201L274.244 449.057L278.552 450.182L280.774 445.875C281.789 445.957 282.832 445.957 283.875 445.847L286.152 450.127L290.432 448.947L290.213 444.092C291.146 443.653 292.051 443.132 292.874 442.528L296.99 445.107L300.118 441.952L297.511 437.865C298.088 437.014 298.609 436.109 299.048 435.176L303.905 435.341L305.029 431.034L300.722 428.812C300.804 427.797 300.804 426.755 300.694 425.712L304.975 423.436ZM285.247 438.386C279.155 440.059 272.872 436.466 271.198 430.376C269.525 424.286 273.119 417.977 279.21 416.331C285.301 414.657 291.585 418.251 293.259 424.341C294.905 430.431 291.338 436.713 285.247 438.386Z" fill="black"/>
<path d="M96.4725 129.505C118.794 129.505 136.889 111.414 136.889 89.0981C136.889 66.782 118.794 48.6913 96.4725 48.6913C74.1512 48.6913 56.0562 66.782 56.0562 89.0981C56.0562 111.414 74.1512 129.505 96.4725 129.505Z" fill="#FF3811"/>
<path d="M105.856 83.4198L105.664 70.6092C105.581 66.467 102.289 63.0655 98.1458 62.8735C93.591 62.654 89.8046 66.3847 89.9143 70.9658L89.9966 74.9434C90.0241 76.3424 88.8717 77.4671 87.4998 77.4123C86.2376 77.3574 85.2224 76.315 85.195 75.0531L85.1401 71.2675C84.9755 63.9433 90.8472 57.9083 98.4202 58.2101C104.676 58.4569 110.411 63.9707 110.548 70.6641L110.712 83.6118L105.856 83.4198Z" fill="white"/>
<path d="M110.685 84.2153C110.658 84.2153 110.658 84.2153 110.685 84.2153L105.829 84.0233C105.499 84.0233 105.252 83.749 105.252 83.4198L105.06 70.6092C104.978 66.7962 101.932 63.669 98.1185 63.4769C96.0881 63.3946 94.1674 64.1079 92.7132 65.5343C91.259 66.9608 90.4633 68.9084 90.5181 70.9384L90.6005 74.916C90.6279 75.7389 90.2986 76.5619 89.695 77.1379C89.0914 77.714 88.2957 78.0432 87.4725 77.9883C85.8811 77.9334 84.6189 76.6167 84.5915 75.0257L84.5366 71.2401C84.4543 67.482 85.8537 63.9433 88.5152 61.3373C91.1492 58.7587 94.6613 57.4145 98.4478 57.5791C98.4752 57.5791 98.5026 57.5791 98.5301 57.5791C105.225 57.9083 110.987 63.861 111.152 70.6092L111.316 83.5569C111.316 83.7215 111.261 83.8861 111.124 83.9958C110.987 84.1604 110.822 84.2153 110.685 84.2153ZM106.432 82.8163L110.054 82.9534L109.889 70.6366C109.752 64.4645 104.457 59.033 98.338 58.7861C98.3106 58.7861 98.2831 58.7861 98.2557 58.7861C94.8534 58.6764 91.6705 59.8834 89.3109 62.2151C86.8963 64.5742 85.6067 67.7837 85.689 71.2127L85.7439 74.9982C85.7439 75.9584 86.5122 76.7264 87.4725 76.7813C87.9664 76.8087 88.4603 76.6167 88.817 76.2601C89.1737 75.9035 89.3657 75.4372 89.3657 74.9434L89.2834 70.9658C89.2286 68.6067 90.1614 66.3298 91.8626 64.6839C93.5638 63.0106 95.7863 62.1602 98.1734 62.2699C102.618 62.462 106.158 66.1378 106.268 70.5817L106.432 82.8163Z" fill="#FF3811"/>
<path d="M100.478 118.642L95.073 118.862C87.5824 118.67 80.9699 109.727 81.6832 99.2204L82.8082 82.4048L114.636 82.1579C117.463 82.1579 119.822 84.6542 119.63 87.4797L118.642 101.689C118.011 111.236 110.082 118.642 100.478 118.642Z" fill="white"/>
<path d="M95.2652 118.395C84.729 118.395 76.3878 109.48 77.1012 98.9461L78.1987 82.6243H111.865C113.402 82.6243 114.637 83.941 114.527 85.4772L113.457 101.388C112.798 110.961 104.841 118.395 95.2652 118.395Z" fill="white"/>
<path d="M95.2651 118.999C89.997 118.999 85.113 116.886 81.5186 113.019C77.9242 109.178 76.1407 104.158 76.4974 98.8913L77.5949 82.5694C77.6224 82.2402 77.8693 81.9933 78.1986 81.9933H111.865C112.771 81.9933 113.649 82.3774 114.252 83.0358C114.883 83.6941 115.185 84.5994 115.13 85.5046L114.06 101.415C113.374 111.29 105.143 118.999 95.2651 118.999ZM78.7748 83.2552L77.7047 99.001C77.3754 103.911 79.0492 108.602 82.3966 112.223C85.7715 115.817 90.3262 117.819 95.2651 117.819C104.484 117.819 112.222 110.605 112.825 101.388L113.896 85.4772C113.923 84.9011 113.731 84.3525 113.347 83.9136C112.963 83.5021 112.414 83.2552 111.838 83.2552H78.7748Z" fill="#FF3811"/>
<path d="M94.8534 108.081C94.0028 108.081 93.3169 107.368 93.3717 106.49L94.1674 93.8164C94.2223 93.0209 94.8808 92.4174 95.6491 92.4174C96.4997 92.4174 97.1856 93.1306 97.1308 94.0084L96.3351 106.682C96.2802 107.45 95.6217 108.081 94.8534 108.081Z" fill="#FF3811"/>
<path d="M95.3748 100.455C98.4056 100.455 100.862 97.9985 100.862 94.9685C100.862 91.9385 98.4056 89.4822 95.3748 89.4822C92.3441 89.4822 89.8872 91.9385 89.8872 94.9685C89.8872 97.9985 92.3441 100.455 95.3748 100.455Z" fill="#FF3811"/>
</g>
<defs>
<clipPath id="clip0_60_654">
<rect width="460" height="502" fill="white"/>
</clipPath>
</defs>
</svg>
